<svg width="48" height="48" viewBox="0 0 48 48" fill="none" xmlns="http://www.w3.org/2000/svg">
<path fill-rule="evenodd" clip-rule="evenodd" d="M31.2002 24.1143C31.2002 24.5561 30.842 24.9143 30.4002 24.9143L17.6002 24.9143C17.1584 24.9143 16.8002 24.5561 16.8002 24.1143C16.8002 23.6725 17.1584 23.3143 17.6002 23.3143L30.4002 23.3143C30.842 23.3143 31.2002 23.6725 31.2002 24.1143Z" fill="#747986"/>
<path fill-rule="evenodd" clip-rule="evenodd" d="M23.6514 30.1657C23.339 30.4781 22.8325 30.4781 22.5201 30.1657L17.0343 24.68C16.7219 24.3676 16.7219 23.861 17.0343 23.5486C17.3468 23.2362 17.8533 23.2362 18.1657 23.5486L23.6514 29.0343C23.9638 29.3467 23.9638 29.8533 23.6514 30.1657Z" fill="#747986"/>
<path fill-rule="evenodd" clip-rule="evenodd" d="M23.6514 18.0629C23.9638 18.3753 23.9638 18.8818 23.6514 19.1943L18.1657 24.68C17.8533 24.9924 17.3468 24.9924 17.0343 24.68C16.7219 24.3676 16.7219 23.861 17.0343 23.5486L22.5201 18.0629C22.8325 17.7505 23.339 17.7505 23.6514 18.0629Z" fill="#747986"/>
</svg>
