<svg fill="none" height="160" viewBox="0 0 160 160" width="160" xmlns="http://www.w3.org/2000/svg"><path d="m85.861 112.374c0 .7 0 1.5.1001 2.201 0 9.005-6.8039 15.008-9.4054 15.409-7.3042 1.1-13.2075-5.604-13.2075-14.609l-.1001-.1c0-.7.1001-1.501.1001-2.201 0-8.905-3.3019-17.0098-8.5049-22.3128-4.7026-6.4036-7.6043-14.9085-7.6043-24.1137 0-19.9114 13.2075-36.0205 29.5168-36.0205s29.5172 16.1091 29.5172 36.0205c0 9.3053-6.104 17.2098-10.8065 23.6134-5.4031 5.303-9.6055 13.1071-9.6055 22.1131z" fill="#ffe8b2"/><path clip-rule="evenodd" d="m52.5421 14.3176c.1001 1.0006 1.0006 1.8011 2.0012 1.8011h.0001c.1 0 .2 0 .1.1 1.1006-.1001 1.9011-1.1006 1.801-2.2012 0-.1001-.5003-6.70387-1.2007-12.30707-.1001-1.100625-1.1006-1.8010064-2.2013-1.70094936-1.1006.10005736-1.8009 1.10060936-1.7009 2.20123936.7004 5.50313 1.2006 12.00688 1.2006 12.10688zm-6.7032 8.4047c-.7004 0-1.3008-.3002-1.701-.9005-1.701-2.7015-6.4037-9.2052-10.2058-13.80787-.7004-.90051-.6004-2.10122.3001-2.80161.9005-.7004 2.1012-.60033 2.8016.30018 3.8022 4.7027 8.705 11.3065 10.506 14.1081.6003.9005.3002 2.2012-.6003 2.8015-.3002.2002-.7004.3002-1.1006.3002zm-10.5066 6.6031c.4003.3002.8005.5003 1.3008.5003.5002 0 1.1006-.3001 1.5008-.8004.7004-.8005.6003-2.1012-.2001-2.8016-3.7021-3.1018-7.8044-5.5032-12.307-7.1041-1.1006-.4002-2.2013.2001-2.6015 1.2007-.4003 1.1006.2001 2.2013 1.2007 2.6015 4.1023 1.4008 7.8044 3.602 11.1063 6.4036zm23.6135 101.8346c-5.7944-3.256-9.7059-9.46-9.7059-16.585v-.1-.2-1.301-.8c0-8.405-3.7021-16.4099-10.2058-21.8129l-.2001-.2001c-6.6038-7.3042-10.3059-16.8096-10.3059-26.6152 0-21.9125 17.8101-39.7227 39.7226-39.7227 5.5032 0 14.8085 1.9011 22.713 7.1041 10.5063 6.9039 16.3093 18.2104 17.0093 32.5185.401 9.4054-3.201 18.9108-10.3055 26.7153l-.2001.2001c-6.5037 5.403-10.2058 13.4079-10.2058 21.8129v.8 1.301.2.1c0 7.147-3.9825 13.368-9.8052 16.615v1.395c.086 4.472-3.0064 8.279-7.1171 9.26.83 7.83 7.4761 13.953 15.5217 13.953l39.923.2c4.002 0 7.304-3.302 7.304-7.304 0-4.003-3.302-7.305-7.304-7.305h-16.51c-8.104 0-14.7081-6.603-14.7081-14.708s6.6041-14.708 14.7081-14.708h1.701c6.904 0 12.507-5.604 12.507-12.5075v-8.905c0-1.1007.901-2.0012 2.002-2.0012 1.1 0 2.001.9005 2.001 2.0012v8.905c0 9.1055-7.405 16.5095-16.51 16.5095h-1.701c-5.903 0-10.7058 4.803-10.7058 10.706s4.8028 10.706 10.7058 10.706h16.51c6.203 0 11.306 5.103 11.306 11.307 0 6.203-5.103 11.306-11.306 11.306l-39.923-.2c-10.2361 0-18.6766-7.901-19.5387-17.919-4.1915-.921-7.3765-4.779-7.3765-9.396zm9.2049-1.577c-8.3047 0-15.0086-6.803-15.0086-15.108.0562-.281.0808-.593.0386-.901h29.9786v1.001c0 8.305-6.7039 15.008-15.0086 15.008zm-1.9009-20.012h-13.4111c-.6861-8.617-4.7629-16.5719-11.4032-22.2117-5.9034-6.6037-9.1052-15.1086-9.1052-23.9136 0-19.7112 16.0091-35.7204 35.7203-35.7204.4002 0 34.1194.4003 35.7204 35.8205.4 8.4048-2.802 16.8095-9.1052 23.8135-6.6404 5.6398-10.7171 13.5947-11.4033 22.2117h-13.0105v-12.7775c3.4717-.917 6.0036-4.0589 6.0036-7.8338v-14.6084c0-2.3013 1.9011-4.1023 4.1024-4.1023h1.2006c1.1006 0 2.0011-.9005 2.0011-2.0012 0-1.1006-.9005-2.0011-2.0011-2.0011h-1.2006c-4.5026 0-8.1047 3.6021-8.1047 8.1046v14.6084c0 2.3013-1.801 4.1023-4.1023 4.1023s-4.1024-1.9011-4.1024-4.1023v-14.6084c0-4.5025-3.602-8.1046-8.1046-8.1046h-1.2007c-1.1006 0-2.0011.9005-2.0011 2.0011 0 1.1007.9005 2.0012 2.0011 2.0012h1.2007c2.3013 0 4.1023 1.9011 4.1023 4.1023v14.6084c0 3.8469 2.6295 7.0365 6.2035 7.8838zm2.0011 28.617h.0404c2.7834-.022 5.0636-2.315 5.2628-5.303-3.502 1.001-7.2041 1.001-10.606 0 .1991 2.888 2.4794 5.28 5.2627 5.303z" fill="#3e424c" fill-rule="evenodd"/></svg>