<svg fill="none" height="160" viewBox="0 0 160 160" width="160" xmlns="http://www.w3.org/2000/svg"><g clip-rule="evenodd" fill-rule="evenodd"><path d="m114.836 130.975 7.321.04c7.622 0 15.646-8.725 17.552-16.749l5.315-18.6543 9.929-2.2065c1.805-.4011 2.909-2.5073 2.106-4.4129l-10.932-28.6838c-.702-1.9056-2.306-12.3361-2.306-12.3361-2.207-16.4481-12.437-29.8874-26.077-37.0082-25.8753-13.23869-60.5768-2.00585-70.4055 28.2827-5.5162 17.0498-4.2123 44.4299 12.2357 71.0071l2.6077 5.216c.2006.401-.2006 42.925-.2006 42.925h52.8547zm-78.5937-15.838c-.6895-1.74-2.4184-1.74-3.108 0l-2.9181 8.781-8.4246.57c-1.8588.14-2.5584 1.06-1.1793 2.25l7.3253 5.12-1.8688 7.721c-.4297 1.77.1 3.28 1.699 2.26l6.7956-3.53 6.3559 3.53c1.599 1.02 3.5078-.48 3.078-2.26l-1.8688-7.721 5.9462-5.12c1.3791-1.19.6796-4.7-1.1792-4.84l-7.7351-.57z" fill="#ffe8b2"/><path d="m135.766 115.354c-4.206-.411-11.909-2.212-14.11-9.713-.301-1.103.301-2.207 1.303-2.507 1.104-.301 2.207.3 2.508 1.303 1.705 5.717 8.525 6.72 11.534 6.921l4.765-15.6211c-.925-.4073-2.234-1.2077-3.06-2.7327-.602-1.1032-1.204-2.9085-.401-5.5161.301-1.1033 1.404-1.705 2.507-1.3038 1.103.3008 1.705 1.4041 1.304 2.5073-.301 1.0029-.301 1.8053.1 2.407.408.735 1.216 1.071 1.502 1.1705.066-.0254.134-.0479.203-.0676l11.032-2.2064c.501-.1003.802-.5015.903-.7021.1-.2005.2-.6017 0-1.1032l-12.236-29.2856c-.903-2.1062-1.505-4.3126-1.805-6.6194-.702-4.6134-.903-6.0175-.903-6.519-2.206-15.4452-12.637-29.085-27.882-36.40645-14.4418-6.92024-32.0934-7.32141-47.2377-1.00294-13.4393 5.71669-23.4686 15.94659-27.9818 28.88449-6.0176 17.0498-4.4129 35.8046 4.4129 51.5507.5015 1.0029.2006 2.2064-.8023 2.7079-1.003.5015-2.2065.2006-2.7079-.8023-9.3273-16.749-11.0323-36.8077-4.7138-54.8604 4.9144-14.0411 15.746-25.0733 30.2885-31.19123 16.1472-6.61936 35.0024-6.11789 50.4471 1.20351 16.449 7.92312 27.681 22.56602 30.088 39.41522 0 .3009.903 6.4188.903 6.4188.301 2.0058.802 3.9114 1.504 5.6164l12.236 29.2856c.602 1.5044.502 3.1091-.2 4.5132s-2.107 2.4071-3.611 2.7079l-9.829 2.0059-5.441 17.8059c-.006.15-.031.3-.075.447-2.307 8.926-10.43 18.354-19.858 18.354h-4.112v25.575c0 1.103-.902 2.006-2.006 2.006-1.103 0-2.005-.903-2.005-2.006v-25.575h-11.434c-8.7257 0-16.5486-5.215-19.9586-13.239l-2.6076-6.118c-.4012-1.003 0-2.206 1.1032-2.607 1.003-.401 2.2065 0 2.6077 1.103l2.6076 6.118c2.8082 6.619 9.1267 10.832 16.2477 10.832h12.814c.197-.066.407-.101.625-.101.219 0 .429.035.626.101h5.492c6.661 0 12.757-6.464 15.314-13.154zm-27.467-52.3451c.713.8149 5.62 6.4258 11.953 6.4258h.2c4.012-.1003 7.622-2.3068 10.731-6.6194.703-.9026.502-2.2064-.401-2.8082-.902-.702-2.106-.5014-2.808.4012-2.407 3.3097-4.914 4.9144-7.622 5.0147-4.915.1002-9.027-4.9144-9.027-5.0147-.702-.8023-1.905-1.0029-2.808-.3009-.802.7021-1.003 1.9056-.301 2.8082.012.0116.04.0435.083.0933zm-75.804 96.9911c-17.8522 0-32.495-14.643-32.495-32.595 0-17.953 14.6428-32.5954 32.495-32.5954s32.495 14.6424 32.495 32.5954c0 17.952-14.5425 32.595-32.495 32.595zm0-61.1787c-15.6457 0-28.48327 12.8377-28.48327 28.5837s12.83757 28.583 28.48327 28.583 28.4833-12.837 28.4833-28.583-12.7373-28.5837-28.4833-28.5837zm-.2626 14.4007c.0413-.103.0898-.146.1264-.169.0463-.03.1141-.053.1958-.053.0816 0 .1494.023.1956.053.0367.023.0852.066.1265.169l.0004.001 3.3478 8.34c.2849.71.9493 1.195 1.7119 1.25l8.8579.64c.1116.008.1623.041.1909.065.0382.032.0812.088.1073.171.0263.083.026.164.0099.226-.0133.052-.0407.108-.1125.169l-6.8088 5.803c-.5752.49-.8249 1.262-.6455 1.997l2.1383 8.749c.0229.094.0121.159-.0083.211-.0241.062-.0712.127-.1381.177-.0661.049-.129.068-.1741.07-.0328.003-.0957.001-.1994-.065-.0334-.021-.0675-.041-.1021-.06l-7.2853-4c-.5824-.32-1.2857-.329-1.8767-.026l-7.785 4.001c-.0514.026-.1017.055-.1506.085-.1037.066-.1666.068-.1994.065-.0451-.002-.108-.021-.1741-.07-.0669-.05-.114-.115-.1381-.177-.0203-.052-.031-.118-.0083-.211l2.1383-8.749c.1794-.735-.0703-1.507-.6455-1.997l-6.8032-5.799h-.0009c-.0748-.065-.1034-.124-.1171-.177-.0164-.063-.0163-.143.0095-.225.0257-.081.0679-.137.1055-.168.0283-.023.0796-.057.193-.065l8.8579-.64c.7626-.055 1.427-.54 1.7119-1.25zm-3.7129-1.488c1.4604-3.645 6.6085-3.645 8.0697-.001l.0004.001 2.882 7.179 7.6043.55h.0016c3.9928.283 5.3861 5.219 2.5031 7.669l-.002.001-5.8643 4.998 1.8463 7.555c.8826 3.623-3.0453 6.859-6.4789 4.762l-6.3084-3.464-6.7723 3.48c-3.4273 2.064-7.3328-1.165-6.4525-4.778l1.8463-7.555-5.8699-5.002c-2.8715-2.456-1.493-7.383 2.5066-7.666h.0017l7.6043-.55zm0 0 1.8563.744-1.8533-.744-.0026-.001z" fill="#3e424c"/></g></svg>