<svg fill="none" height="160" viewBox="0 0 160 160" width="160" xmlns="http://www.w3.org/2000/svg"><g clip-rule="evenodd" fill-rule="evenodd"><path d="m157.35 57.0717c0 12.3235-4.635 18.9034-12.53 27.1667l-50.2198-48.8319-18.1016 16.3837c.1894-.4265-.3333.1929-1.3451 1.392-4.105 4.8651-16.2615 19.2723-21.5793 12.0868 0 0 22.1206-25.5053 30.3896-33.8237 8.3462-8.3954 19.9072-13.5998 32.6802-13.5998 25.434 0 40.695 13.7979 40.695 39.2152zm-131.1266 52.5393c4.1658-.676 7.3683-3.915 10.2407-6.82l.2195-.222.3218-.326c2.9153-2.9512 6.1458-6.2216 6.8572-10.4129.1541-.8803.4404-1.6175.8258-2.2227-4.063-2.8828-8.8196-1.6174-12.4641 2.0246l-6.2982 6.2938c-3.6666 3.6642-4.9108 8.4612-1.9709 12.5212.6166-.396 1.3653-.693 2.2682-.836zm36.5262-.175c3.3735-3.299 5.085-4.972 1.4056-8.649h-.011c-4.052-4.0603-8.0159-3.8953-12.0788.165l-11.5613 11.553c-4.0629 4.06-4.6245 6.811-.5615 10.871 4.0629 4.06 6.0779 2.762 10.1409-1.298l11.5612-11.553c.382-.382.7503-.742 1.1007-1.085l.0036-.003zm21.7428 1.418c.4184 2.487.2642 3.895-3.7987 7.955l-16.2519 16.23c-4.0629 4.06-7.0579 4.698-8.5773 4.28-4.063-4.06-4.3933-7.768-.3414-11.828l16.8134-16.802c4.063-4.06 8.0929-3.906 12.1559.154zm10.9008 22.645c4.0629-4.06 4.9988-6.624 3.3362-8.417h.011c-4.0629-4.06-8.0268-4.423-12.0898-.363l-16.8133 16.802c-4.063 4.06-3.6556 8.109.4073 12.169 3.1531 3.151 6.2929-.557 9.44-4.273.9082-1.073 1.817-2.146 2.7269-3.055z" fill="#ffe8b2"/><g fill="#3e424c"><path d="m143.768 82.5442c.936-.5871 2.17-.3046 2.757.6311 2.982 4.751 2.432 11.0986-1.665 15.2718l-.002.002c-3.067 3.1149-7.377 4.2739-11.364 3.4529 1.009 4.077-.08 8.567-3.27 11.754-3.308 3.306-8.019 4.354-12.217 3.144.775 4.134-.438 8.567-3.638 11.765-4.258 4.256-10.785 5.044-15.8965 2.114-.9583-.549-1.2898-1.771-.7405-2.73.5493-.958 1.7714-1.289 2.73-.74 3.565 2.044 8.115 1.49 11.08-1.473 3.589-3.587 3.589-9.406 0-12.993l-4.284-4.28c-.475-.476-.68-1.158-.545-1.817s.592-1.206 1.217-1.455l.165-.066c.742-.297 1.59-.123 2.156.442l5.263 5.26c3.282 3.279 8.601 3.279 11.883 0 3.281-3.279 3.281-8.592 0-11.8712l-.573-.5722c-.435-.4355-.646-1.0475-.571-1.659.074-.5964.411-1.1273.918-1.4471.001-.0007.002-.0015.003-.0024l.003-.0017c.012-.0088.038-.027.067-.0461.031-.0212.076-.0511.131-.0837.787-.4717 1.793-.3478 2.442.3006l.313.313c3.306 3.2445 8.621 3.1934 11.877-.114 2.772-2.8247 3.147-7.1272 1.13-10.3419-.587-.9356-.304-2.17.631-2.7571z"/><path d="m0 54.1119c0-26.5232 21.5198-48.02621 48.0579-48.02621 12.377 0 22.831 6.21311 31.1174 13.51631.8287.7303.9084 1.9941.178 2.8228-.7303.8287-1.9941.9084-2.8228.178-7.9433-7.0008-17.4849-12.5171-28.4726-12.5171-24.3315 0-44.0579 19.7148-44.0579 44.0262 0 14.1442 6.6742 26.7412 17.0629 34.7958.8729.6768 1.0319 1.9331.3551 2.806-.6768.873-1.9332 1.0319-2.8061.3551-11.3245-8.7802-18.6119-22.5248-18.6119-37.9569z"/><path d="m110.063 49.7401c.774-.7884 2.04-.8004 2.829-.0267l31.8 31.2062c4.881 4.7988 4.964 12.6457.155 17.5295-3.067 3.1149-7.377 4.2739-11.364 3.4529 1.009 4.077-.08 8.567-3.27 11.754-3.305 3.303-8.01 4.352-12.205 3.147.773 4.134-.44 8.565-3.639 11.762-4.609 4.606-11.876 5.148-17.1275 1.312-.892-.651-1.087-1.903-.4355-2.795s1.9027-1.087 2.7947-.435c3.6673 2.678 8.7323 2.295 11.9413-.911 3.589-3.587 3.589-9.406 0-12.993l-.006-.005-30.3731-30.573-.0051-.0051c-.7775-.7826-.7745-2.0469.0067-2.8258.7812-.779 2.0456-.7783 2.8259.0015l.0051.0051 31.5075 31.4863c3.282 3.279 8.601 3.279 11.883 0 3.28-3.278 3.281-8.589.003-11.8679-.001-.0011-.002-.0022-.003-.0033l-31.8742-31.5552-.0063-.0062c-.7837-.7759-.7914-2.0398-.0173-2.8252.7742-.7855 2.0381-.796 2.8252-.0236l.0063.0062 31.7943 31.2001c3.305 3.25 8.624 3.2005 11.883-.1091 3.251-3.3021 3.202-8.614-.108-11.8697-.001-.0004-.001-.0008-.001-.0012l-31.798-31.2035c-.788-.7737-.8-2.04-.027-2.8283z"/><path d="m111.942 8.6001c-12.2177 0-23.2747 4.9761-31.2613 13.0099-4.1414 4.1661-12.0836 12.0422-18.9845 18.871-3.4518 3.4156-6.645 6.5712-8.9752 8.8729-1.1652 1.1509-2.1146 2.0883-2.7728 2.738l-.9598.9473c-2.4569 2.9275-3.1338 5.4374-2.9413 7.2873.1906 1.8309 1.2641 3.3592 3.0439 4.3386 3.5946 1.9782 10.2452 1.6469 16.4494-4.411l27.1497-27.5929c.3721-.3781.8792-.5929 1.4096-.5972.5305-.0042 1.0409.2024 1.419.5745l49.6653 48.8837c6.74-7.7264 10.816-17.8368 10.816-28.8959 0-24.3114-19.726-44.0262-44.058-44.0262zm-64.4237 43.0799c-1.4046-1.4237-1.4045-1.4238-1.4044-1.424l1.0243-1.0108c.6579-.6495 1.607-1.5866 2.7718-2.7371 2.3297-2.3011 5.522-5.4558 8.9727-8.8704 6.9037-6.8315 14.8335-14.6955 18.9612-18.8477 8.7056-8.757 20.7712-14.1899 34.0981-14.1899 26.538 0 48.058 21.503 48.058 48.0262 0 12.8578-5.057 24.5491-13.294 33.1596-.37.3868-.88.6092-1.415.6172-.536.0081-1.052-.1988-1.433-.5744l-49.7196-48.9362-25.7605 26.1811c-.009.0091-.0181.0182-.0273.0272-7.1259 6.9681-15.663 8.1093-21.1882 5.0687-2.7814-1.5307-4.751-4.1361-5.0938-7.4289-.3393-3.2597.9484-6.8393 3.9234-10.353.0385-.0455.0794-.0896.1219-.1316z"/><path d="m39.3551 86.6324c-3.282-3.2797-8.6009-3.2797-11.8829 0l-6.2981 6.2938c-3.2813 3.279-3.2813 8.5918 0 11.8708 3.282 3.28 8.6008 3.28 11.8829 0l6.2981-6.2938c3.2813-3.279 3.2813-8.5918 0-11.8708zm-14.7103-2.8294c4.8439-4.8405 12.6939-4.8405 17.5378 0 4.8446 4.8413 4.8446 12.6883 0 17.53l-6.2982 6.293c-4.8439 4.841-12.6939 4.841-17.5378 0-4.8446-4.841-4.8446-12.6879 0-17.5292z"/><path d="m59.3067 96.0733c-3.282-3.2797-8.6009-3.2797-11.8829 0l-11.5612 11.5537c-3.2813 3.279-3.2813 8.591 0 11.87 3.282 3.28 8.6008 3.28 11.8828 0l11.5613-11.553c3.2813-3.279 3.2813-8.5917 0-11.8707zm-14.7103-2.8294c4.8439-4.8405 12.6939-4.8405 17.5378 0 4.8446 4.8414 4.8446 12.6881 0 17.5301l-11.5613 11.553c-4.8439 4.84-12.6939 4.84-17.5378 0-4.8447-4.841-4.8447-12.688 0-17.53z"/><path d="m79.2688 105.525c-3.282-3.28-8.6009-3.28-11.8829 0l-16.813 16.802c-3.2813 3.279-3.2816 8.592-.0004 11.871 3.282 3.28 8.6009 3.28 11.8829 0l16.8134-16.802c3.2812-3.279 3.2812-8.592 0-11.871zm-14.7104-2.829c4.8439-4.8407 12.6939-4.8407 17.5378 0 4.8447 4.841 4.8447 12.688 0 17.529l-16.8133 16.802c-4.8439 4.841-12.6939 4.841-17.5378 0-4.8447-4.841-4.8443-12.688.0003-17.53z"/><path d="m93.9792 120.225c-3.282-3.28-8.6009-3.279-11.883 0l-16.8133 16.802c-3.2813 3.279-3.2812 8.591.0001 11.87 3.282 3.28 8.6008 3.28 11.8829 0l16.8133-16.801c3.2813-3.279 3.2813-8.592 0-11.871zm-14.7104-2.829c4.8439-4.841 12.694-4.841 17.5379-.001 4.8443 4.842 4.8443 12.689 0 17.53l-16.8134 16.802c-4.8439 4.84-12.6939 4.84-17.5378 0-4.8446-4.842-4.8448-12.688-.0001-17.529z"/></g></g></svg>