<?xml version="1.0" encoding="UTF-8"?>
<svg width="140px" height="40px" viewBox="0 0 140 40" version="1.1" xmlns="http://www.w3.org/2000/svg" xmlns:xlink="http://www.w3.org/1999/xlink">
    <!-- Generator: Sketch 63.1 (92452) - https://sketch.com -->
    <title>Forbes-Logo Copy 3</title>
    <desc>Created with Sketch.</desc>
    <g id="Landing-page" stroke="none" stroke-width="1" fill="none" fill-rule="evenodd" opacity="0.8">
        <g id="PV---Home-web" transform="translate(-294.000000, -4890.000000)" fill="#1D3861" fill-rule="nonzero">
            <g id="Forbes-Logo-Copy-3" transform="translate(296.000000, 4890.000000)">
                <path d="M26.9119328,36.4307816 C25.5619702,34.9770594 24.6867066,33.3783309 24.041503,31.1877464 C23.0341802,27.7676996 23.0338265,23.3705862 24.0406037,20.0202916 C25.0162915,16.773455 27.2131286,13.9472313 29.9018076,12.4798723 C33.6252344,10.4477947 38.8658288,10.575442 42.3143297,12.7822097 C45.4178715,14.7682304 47.2978528,18.2971163 47.8208623,23.1184454 C47.9805553,24.5905675 47.8769433,27.6998636 47.6254221,28.9833763 C46.5959857,34.2365902 43.5978247,37.9062608 39.2052939,39.2893907 C38.7319638,39.4384332 37.9979681,39.6128082 37.5741916,39.6768881 C36.6774439,39.8124893 33.9406382,39.8096972 33.0727685,39.6722927 C30.6496718,39.2886703 28.5303469,38.173591 26.9119328,36.4307816 Z M38.7443282,35.4762967 C39.7053942,33.4783676 40.1345549,30.5239676 40.1451696,25.8327162 C40.1584724,19.9533695 39.3107435,16.2121235 37.5213723,14.2532257 C36.7699477,13.4306101 36.237128,13.1751349 35.2764088,13.1768074 C33.1442179,13.1805421 31.7909385,15.6005196 31.2562631,20.3657627 C31.010497,22.556122 31.0092059,27.7743931 31.2539547,29.6895587 C32.0113683,35.6163142 33.9668791,38.4444434 36.6978527,37.5627203 C37.4057657,37.3341628 38.2787828,36.4441034 38.7443282,35.4762967 Z M70.911814,38.7519532 L70.1796849,38.5709979 L70.2367761,34.3204043 C70.3742307,24.0866725 70.3915196,18.5000927 70.3025505,13.0671109 C70.215396,7.7449009 70.1899796,7.18217357 70.0011998,6.39490073 C69.7619981,5.3973583 69.4167491,4.70152413 69.0015068,4.38006447 C68.840193,4.25518431 68.4019205,4.07820631 68.0275698,3.98678174 C66.7832606,3.68289511 66.8508518,3.73162379 66.8176318,3.11448017 C66.798496,2.75898576 66.8339254,2.52413664 66.9175623,2.45207454 C67.0296874,2.35546879 77.2353905,0.239035585 77.5604515,0.244967304 C77.6538577,0.246687669 77.6670884,1.66540687 77.6192347,6.54850411 C77.5852713,10.0142302 77.5809083,12.8498238 77.6095415,12.8498238 C77.6381716,12.8498238 78.0110913,12.674268 78.4382514,12.4597005 C79.7258425,11.8129276 80.9126115,11.5322885 82.6363057,11.4669732 C83.7839281,11.4234864 84.3155189,11.4507189 84.9043156,11.5831619 C88.7539266,12.4490827 91.6027283,15.8747509 92.5982875,20.8351174 C92.8579978,22.1291152 92.9546188,25.3450211 92.7821845,26.9558374 C92.6352159,28.3287604 92.2159172,30.1785987 91.7795814,31.3790534 C90.1331168,35.908852 86.6005472,38.8640864 81.9142867,39.6320457 C80.8348229,39.8089422 77.4450477,39.8311793 75.9909245,39.6709041 C74.9995626,39.5616348 71.9700594,39.0135146 70.911814,38.7519532 Z M81.8914765,36.454594 C83.4090973,34.9711546 84.5501066,31.9086359 84.9988661,28.1142287 C85.1816437,26.5687734 85.1570267,23.0472415 84.9544285,21.757295 C84.4064935,18.2686029 83.2290068,15.9756916 81.511263,15.0524405 C80.7987071,14.6694561 80.6888267,14.6424408 79.8436586,14.6424408 C79.2391957,14.6424408 78.7192001,14.7127993 78.2770595,14.8544118 L77.6152445,15.0663817 L77.5663685,19.0371846 C77.503759,24.1237026 77.6559722,36.857959 77.7837483,37.2233377 C77.8652897,37.4565093 77.9550662,37.5059465 78.359646,37.540468 C79.3119811,37.6217278 79.4695045,37.6188206 79.9959947,37.5102683 C80.7219673,37.3605859 81.2859539,37.0464781 81.8914765,36.454594 Z M95.0593376,29.2014878 C94.9103317,28.4784853 94.8444381,27.6695098 94.8070731,26.1043248 C94.747954,23.6281147 94.9332054,22.0912086 95.5209675,20.181563 C96.649543,16.514802 98.6721883,13.9165027 101.610267,12.3592108 C104.711411,10.7154889 108.951284,10.6078307 111.695766,12.1031207 C114.785769,13.7866661 116.604005,17.1482042 117.065265,22.0301955 C117.12736,22.6874883 117.163357,23.4697211 117.145259,23.7684907 L117.112342,24.3117078 L109.717481,24.3395413 L102.322622,24.3673736 L102.350812,25.3173324 C102.416107,27.517787 102.851244,29.4640899 103.656224,31.1562454 C104.022111,31.925378 104.313298,32.3447037 105.020746,33.1212403 C106.618896,34.8754572 108.20875,35.5546634 110.716788,35.5546634 C112.535273,35.5546634 113.843004,35.160128 115.210643,34.198892 C115.593707,33.929653 115.981847,33.7093664 116.073173,33.7093664 C116.281938,33.7093664 116.762585,34.3820834 116.762585,34.674268 C116.762585,35.1530194 115.328831,36.6968495 113.930394,37.7239038 C112.785059,38.5650692 110.968672,39.3267107 109.393626,39.626243 C108.290534,39.8360226 105.812546,39.8311901 104.720955,39.6171278 C99.7633412,38.644946 96.2178436,34.8227543 95.0593376,29.2014878 Z M109.597275,21.8425291 L109.534689,20.4998645 C109.313962,15.7652187 108.248263,13.1778554 106.519705,13.1799261 C104.64109,13.1821762 103.139844,15.8079461 102.515667,20.1832569 C102.438941,20.7210419 102.375365,21.358779 102.374375,21.6004497 L102.372577,22.0398517 L104.246274,22.0069501 C105.276808,21.9888544 106.902369,21.9444572 107.858624,21.9082888 L109.597275,21.8425291 Z M119.149826,38.3997345 L118.689036,38.1844119 L118.626199,35.7024414 C118.591644,34.337357 118.551781,32.5121721 118.537621,31.6464739 L118.511868,30.072478 L118.788037,29.9285754 C118.939921,29.8494287 119.246478,29.7754946 119.469253,29.7642761 L119.874311,29.7438804 L120.219412,30.667314 C121.565767,34.2699557 123.144769,36.2124398 125.207165,36.8032331 C125.993917,37.0286063 127.469023,37.030588 128.051458,36.8070574 C129.682963,36.1809038 130.577622,34.837872 130.585407,33.0031884 C130.5946,30.8303574 129.496064,29.7863534 125.345869,28.0238525 C122.774656,26.9319131 121.877729,26.3698755 120.809771,25.1814204 C119.657722,23.8993822 119.104777,22.4400409 119.000968,20.4075773 C118.875526,17.9515421 119.582584,15.8810717 121.149286,14.1166924 C122.725929,12.3411183 124.772736,11.3787904 127.560968,11.1021673 C130.016311,10.8585701 133.785212,11.4247314 135.75988,12.3338011 L136.12014,12.4996497 L136.184385,14.7118042 C136.21972,15.9284881 136.256265,17.5594838 136.265599,18.3362388 L136.282567,19.748519 L135.798763,19.9438131 C135.033834,20.2525899 134.9836,20.213892 134.558086,18.9881832 C133.365364,15.5524667 131.979597,13.9267868 129.820338,13.4301983 C128.504393,13.1275568 127.405158,13.4529167 126.606193,14.3815499 C125.982875,15.1060268 125.739685,15.7493905 125.680756,16.8297539 C125.61692,18.00031 125.809336,18.6330169 126.467179,19.4155497 C127.277985,20.3800589 128.606362,21.2126329 131.252512,22.414815 C134.49358,23.8872771 136.040055,25.1373515 136.88076,26.9643628 C137.426761,28.1509046 137.581343,29.0986199 137.526422,30.922801 C137.4852,32.291629 137.444908,32.5730026 137.158467,33.4920839 C136.224577,36.4885441 134.116322,38.4612581 130.859446,39.3861225 C129.756283,39.6993915 129.598812,39.7156012 127.405186,39.7417126 C126.141066,39.7567596 124.926909,39.7481116 124.707062,39.7224901 C122.92667,39.5150117 120.093239,38.8405901 119.149826,38.3997345 Z M-1.45524533,38.2610087 C-1.45524533,37.3608261 -1.50801915,37.4011305 0.0936779554,37.0780489 C1.32213866,36.8302538 1.76164286,36.576856 2.30411918,35.8036091 C3.3559164,34.3043762 3.58325437,31.4176718 3.58561075,19.5313961 C3.5878242,8.368774 3.39002663,6.0205566 2.30222961,4.29532479 C1.81960677,3.5298915 1.00627992,3.11426398 -0.356009459,2.93690897 L-1.40528014,2.80030504 L-1.43421902,1.90972644 L-1.46315789,1.01914781 L-1.13442746,0.955462122 C-0.953625643,0.92043547 5.39874549,0.905634976 12.9819534,0.9225714 L26.7696048,0.953366385 L26.8342508,1.38794018 C26.8698061,1.62695578 26.9281625,4.07859634 26.9639317,6.83603011 L27.0289664,11.8495448 L26.3180786,12.0842972 C25.2479965,12.4376644 25.254471,12.4419688 24.7730935,11.0572073 C23.5906855,7.65581448 22.2348379,5.69587676 20.3795774,4.70618163 C19.1000118,4.02359333 18.508381,3.94106131 14.8948009,3.94106131 L11.7499667,3.94106131 L11.6957555,4.51143936 C11.5940941,5.58103857 11.4335727,12.4614898 11.4346849,15.7017144 L11.4357941,18.9338572 L12.3601516,18.928099 C12.8685483,18.9249266 13.8710435,18.884256 14.5879191,18.8377087 C15.6655771,18.7677347 15.9857755,18.7055407 16.4366341,18.4786237 C17.5443911,17.9210883 18.2980212,16.694005 18.7597264,14.6960966 L18.9980877,13.6646498 L19.8137457,13.6330953 L20.6294037,13.601541 L20.6294037,20.1289351 L20.6294037,26.6563291 L19.8134329,26.6247748 L18.9974621,26.5932203 L18.7658511,25.5611075 C18.3306766,23.6218687 17.4931877,22.2335521 16.458307,21.7358618 C15.9803762,21.506018 14.7977813,21.3753851 12.5100475,21.2997291 L11.4357941,21.2642027 L11.4357941,23.7164309 C11.4357941,26.388698 11.5709182,30.0037904 11.7441358,31.9657595 C11.98561,34.7008563 12.6284902,36.212241 13.7830407,36.7591401 C14.0035044,36.8635726 14.7010245,37.0332019 15.3330851,37.1360938 C15.9651458,37.2389867 16.5609816,37.3673523 16.6571649,37.4213512 C16.9010903,37.5582964 16.9154853,38.9748363 16.6739742,39.0755935 C16.4849685,39.1544457 -1.15030762,39.1485616 -1.33033229,39.0695854 C-1.41341703,39.0331377 -1.45524533,38.7623776 -1.45524533,38.2610087 Z M47.8305616,38.2083439 L47.8604757,37.4575654 L48.2102326,37.3765924 C48.4025989,37.3320573 48.8157857,37.2436605 49.1284263,37.1801553 C50.0959999,36.983615 50.6520594,36.4126165 50.9649458,35.2942983 C51.2198516,34.38321 51.3322206,31.4684898 51.3380865,25.6154293 C51.3452614,18.4569254 51.2080938,16.7664224 50.5423255,15.8081231 C50.1814955,15.2887476 49.9213882,15.1410458 49.0458498,14.9583509 C48.6137412,14.8681845 48.1590183,14.7715092 48.0353542,14.7435172 C47.8350964,14.6981879 47.8105105,14.6272547 47.8105105,14.0948246 C47.8105105,13.5770983 47.8406275,13.4835618 48.0353542,13.3965058 C48.3344413,13.2627939 58.2340651,11.1115286 58.5502894,11.1115286 L58.7969919,11.1115286 L58.7486144,12.7140195 C58.722006,13.5953895 58.6794675,14.8787404 58.6540842,15.5659102 L58.6079323,16.8153099 L58.96657,16.1121673 C60.114657,13.8612401 61.402192,12.4639603 63.1142789,11.6109224 C64.0541277,11.1426484 64.6812048,11.0028855 65.8423657,11.0028855 C67.2194315,11.0028855 68.5960625,11.4913821 68.5960625,11.9800331 C68.5960625,12.3086024 66.169885,19.2782242 66.0360741,19.3340485 C65.9707974,19.3612822 65.4970517,19.164279 64.9833058,18.8962665 C63.9118906,18.3373242 62.9067092,18.0640099 61.9309545,18.0663153 C60.7158541,18.0691835 59.3585116,18.5557811 58.8225981,19.1806342 C58.5933644,19.4479102 58.5922851,19.4639807 58.5353318,23.4556432 C58.4789299,27.4086274 58.6001027,32.2304324 58.8045775,34.1697343 C58.9787716,35.8218492 59.3825409,36.6352344 60.2164662,37.0139558 C60.4946728,37.1403016 62.2548603,37.4024941 62.829277,37.4031524 C62.8728108,37.4032024 62.8952951,37.7821378 62.8792424,38.2452305 L62.8500567,39.0872172 L55.4551967,39.1131145 C51.3880238,39.1273576 48.0019065,39.0985367 47.9304921,39.0490671 C47.8393454,38.9859289 47.8095631,38.7353667 47.8305616,38.2083439 Z" id="path2995"></path>
            </g>
        </g>
    </g>
</svg>