<svg width="260" height="64" viewBox="0 0 260 64" fill="none" xmlns="http://www.w3.org/2000/svg">
    <path fill-rule="evenodd" clip-rule="evenodd" d="M7.53796 6.85558C10.3265 4.9901 13.6047 3.99495 16.9579 3.99591c2.226 0 4.4303.43931 6.4869 1.29282 2.0565.85351 3.9251 2.1045 5.4989 3.68154 1.5739 1.57703 2.8222 3.44923 3.6736 5.50963.8514 2.0604 1.2893 4.2686 1.2887 6.4986 0 3.359-.9944 6.6426-2.8574 9.4355-1.8631 2.7929-4.511 4.9695-7.6091 6.2548-3.098 1.2852-6.507 1.6212-9.7956.9656-3.2887-.6557-6.30946-2.2736-8.68019-4.6491C2.59299 30.6097.978753 27.5832.325167 24.2886c-.653587-3.2946-.317182-6.7094.966693-9.8125 1.28388-3.103 3.45755-5.75503 6.2461-7.62052ZM10.9372 29.9987c1.7821 1.193 3.8773 1.8298 6.0207 1.8298 2.873 0 5.6284-1.143 7.6604-3.1776s3.1742-4.7944 3.1755-7.6724c.001-2.1471-.6337-4.2463-1.8238-6.032-1.1901-1.7857-2.8821-3.1777-4.862-4-1.98-.8224-4.1589-1.03806-6.2611-.6198-2.1023.4183-4.0336 1.4518-5.54949 2.9696-1.51592 1.5179-2.54842 3.4521-2.96692 5.5579-.4185 2.1057-.2042 4.2885.6158 6.2722.82 1.9838 2.20887 3.6794 3.99091 4.8723Zm6.0156 11.958c6.0582.0361 10.9694 4.9852 10.9694 11.0541S23.011 63.9703 16.9528 63.9342c-6.0582-.0361-10.96939-4.9852-10.96939-11.0541S10.8945 41.9207 16.9528 41.9567Z" fill="#FF8283"/>
    <path fill-rule="evenodd" clip-rule="evenodd" d="M250.836 3.60916c0-.45533.275-.86546.696-1.03787l6.924-2.486662c.737-.301797 1.544.2408 1.544 1.037862V55.9783c0 .6193-.425 1.1213-1.043 1.1213h-7.001c-.618 0-1.12-.502-1.12-1.1213v-1.5274c-.362.2474-.733.4855-1.114.7144-3.173 1.8501-6.736 2.7752-10.688 2.7752-3.897 0-7.432-.9251-10.605-2.7752-3.173-1.9062-5.706-4.4572-7.599-7.6529-1.837-3.1958-2.756-6.7559-2.756-10.6805 0-3.9246.919-7.4566 2.756-10.5963 1.893-3.1396 4.426-5.6346 7.599-7.4847 3.173-1.9062 6.708-2.8594 10.605-2.8594 3.952 0 7.515.9251 10.688 2.7753.381.2221.752.4539 1.114.6954V3.60916Zm0 33.95844v-1.8535c-.12-1.8731-.611-3.5477-1.474-5.0239-1.002-1.7153-2.366-3.0553-4.091-4.0202-1.726-1.0184-3.73-1.5277-6.013-1.5277-2.226 0-4.23.5093-6.012 1.5277-1.726.9649-3.089 2.3049-4.092 4.0202-.946 1.7153-1.419 3.6986-1.419 5.9499 0 2.2513.473 4.2614 1.419 6.0303 1.003 1.7689 2.366 3.1625 4.092 4.181 1.782.9648 3.786 1.4473 6.012 1.4473 2.283 0 4.287-.4825 6.013-1.4473 1.781-1.0185 3.145-2.4121 4.091-4.181.863-1.5223 1.354-3.2232 1.474-5.1028Z" fill="#1F222C"/>
    <path d="M66.1866 57.9405c-2.2401 0-4.3962-.2803-6.4683-.841-2.0721-.6167-3.9762-1.4577-5.7123-2.5229-1.4459-.9338-2.7363-2.0232-3.8715-3.2682-.3885-.4261-.3541-1.0795.0534-1.4875l4.3093-4.3141c.4604-.4609 1.2125-.4297 1.6729.0313 1.1942 1.1958 2.5169 2.1342 3.9682 2.8152 1.8481.785 3.9202 1.1774 6.2163 1.1774 2.0721 0 3.6402-.3083 4.7043-.9251 1.064-.6167 1.596-1.5137 1.596-2.6911 0-1.2334-.504-2.1866-1.512-2.8593-1.0081-.6728-2.3242-1.2335-3.9482-1.682-1.5681-.5046-3.2482-1.0092-5.0403-1.5138-1.7361-.5046-3.4162-1.1773-5.0403-2.0183-1.5681-.8971-2.8561-2.1025-3.8642-3.6162-1.008-1.5138-1.5121-3.476-1.5121-5.8868 0-2.579.5881-4.7936 1.7641-6.6438 1.2321-1.8501 2.9402-3.2798 5.1243-4.289 2.2401-1.0092 4.9003-1.5138 7.9804-1.5138 3.2482 0 6.1043.5887 8.5685 1.7661 2.2342.9941 4.1383 2.4509 5.7123 4.3704.3505.4274.2998 1.0481-.0908 1.4391l-4.3207 4.3256c-.4706.4711-1.2422.426-1.7055-.0523-.9686-1-2.0378-1.7819-3.2075-2.3458-1.5121-.7288-3.2482-1.0932-5.2083-1.0932-1.8481 0-3.2762.2803-4.2842.8409-1.0081.5607-1.5121 1.3736-1.5121 2.4389 0 1.1213.504 1.9903 1.5121 2.607 1.008.6167 2.2961 1.1494 3.8642 1.5979 1.6241.4485 3.3042.9531 5.0403 1.5138 1.7921.5045 3.4721 1.2333 5.0402 2.1864 1.6241.8971 2.9402 2.1305 3.9482 3.7003 1.0081 1.5138 1.5121 3.5041 1.5121 5.971 0 3.9246-1.3721 7.0362-4.1162 9.3349-2.7442 2.2987-6.4683 3.448-11.1726 3.448Z" fill="#1F222C"/>
    <path fill-rule="evenodd" clip-rule="evenodd" d="M154.612 55.1653c3.173 1.8501 6.708 2.7752 10.605 2.7752 3.953 0 7.515-.9251 10.689-2.7752 3.173-1.9062 5.678-4.4572 7.515-7.6529 1.893-3.1958 2.839-6.7559 2.839-10.6805 0-3.9246-.946-7.4566-2.839-10.5963-1.837-3.1957-4.342-5.7187-7.515-7.5688-3.174-1.8502-6.736-2.7753-10.689-2.7753-3.897 0-7.432.9532-10.605 2.8594-3.173 1.8501-5.706 4.3451-7.599 7.4847-1.837 3.1397-2.755 6.6717-2.755 10.5963 0 3.9246.918 7.4847 2.755 10.6805 1.893 3.1957 4.426 5.7467 7.599 7.6529Zm16.842-8.3139c-1.726.9648-3.73 1.4473-6.012 1.4473-2.227 0-4.231-.4825-6.012-1.4473-1.726-1.0185-3.09-2.4121-4.092-4.181-.946-1.7689-1.42-3.779-1.42-6.0303 0-2.2513.474-4.2346 1.42-5.9499 1.002-1.7153 2.366-3.0553 4.092-4.0202 1.781-1.0184 3.785-1.5277 6.012-1.5277 2.282 0 4.286.5093 6.012 1.5277 1.726.9649 3.09 2.3049 4.092 4.0202 1.002 1.7153 1.503 3.6986 1.503 5.9499 0 2.2513-.501 4.2614-1.503 6.0303-.947 1.7689-2.311 3.1625-4.092 4.181Z" fill="#1F222C"/>
    <path d="M192.534 57.0995c-.619 0-1.12-.502-1.12-1.1213V17.8539c0-.6193.501-1.1214 1.12-1.1214h7c.619 0 1.12.5021 1.12 1.1214v3.0716c.056-.0807.112-.1609.168-.2404 2.296-3.1957 5.741-4.7936 10.333-4.7936 2.016 0 3.836.3645 5.46 1.0933.942.4226 1.742 1.0479 2.248 1.4987.36.3208.419.8452.182 1.2655l-3.189 5.655c-.372.6612-1.281.7604-1.905.329-.407-.2812-.835-.5062-1.284-.6748-.896-.3363-1.932-.5045-3.108-.5045-2.576 0-4.704.8129-6.385 2.4388-1.68 1.6259-2.52 4.1768-2.52 7.6528v21.3329c0 .6193-.501 1.1213-1.12 1.1213h-7ZM84.818 16.7325c-.7933 0-1.3352.8029-1.0393 1.5397l15.3121 38.1243c.1706.4248.582.703 1.0392.703h3.855c.461 0 .875-.2827 1.043-.7124l9.13-23.3421 9.13 23.3421c.168.4297.582.7124 1.043.7124h3.855c.457 0 .869-.2782 1.039-.703l15.312-38.1243c.296-.7368-.246-1.5397-1.039-1.5397h-7.141c-.468 0-.886.2911-1.049.73l-9.218 24.7733-8.976-24.7644c-.161-.4435-.582-.7389-1.053-.7389h-3.806c-.471 0-.892.2954-1.053.7389l-8.976 24.7644-9.2176-24.7733c-.1632-.4389-.5818-.73-1.0496-.73H84.818Z" fill="#1F222C"/>
</svg>