<svg width="27" height="20" fill="none" xmlns="http://www.w3.org/2000/svg"><path d="M21.12 20c-1.867 0-3.413-.613-4.64-1.84-1.173-1.227-1.76-2.987-1.76-5.28 0-2.453.693-4.88 2.08-7.28 1.44-2.4 3.44-4.267 6-5.6l1.84 2.8c-2.773 1.92-4.427 4.347-4.96 7.28.48-.213 1.04-.32 1.68-.32 1.493 0 2.72.48 3.68 1.44s1.44 2.187 1.44 3.68c0 1.493-.507 2.72-1.52 3.68S22.667 20 21.12 20ZM6.4 20c-1.867 0-3.413-.613-4.64-1.84C.587 16.933 0 15.173 0 12.88 0 10.427.693 8 2.08 5.6c1.44-2.4 3.44-4.267 6-5.6l1.84 2.8c-2.773 1.92-4.427 4.347-4.96 7.28.48-.213 1.04-.32 1.68-.32 1.493 0 2.72.48 3.68 1.44s1.44 2.187 1.44 3.68c0 1.493-.507 2.72-1.52 3.68S7.947 20 6.4 20Z" fill="#A4AAB6"/></svg>