<svg width="56" height="57" viewBox="0 0 56 57" fill="none" xmlns="http://www.w3.org/2000/svg">
<path fill-rule="evenodd" clip-rule="evenodd" d="M40.9347 37.5431C41.6383 39.2416 42.0004 41.0622 42.0004 42.9007L18.9004 42.9007C18.9004 41.0622 19.2625 39.2416 19.9661 37.5431C20.6696 35.8445 21.7009 34.3012 23.0009 33.0012C24.3009 31.7011 25.8443 30.6699 27.5428 29.9663C28.4807 29.5779 29.4557 29.2935 30.4504 29.1167C31.4451 29.2935 32.4201 29.5779 33.358 29.9663C35.0565 30.6699 36.5999 31.7011 37.8999 33.0012C39.1999 34.3012 40.2311 35.8445 40.9347 37.5431Z" fill="#EDB939"/>
<path fill-rule="evenodd" clip-rule="evenodd" d="M21.3 18.4007C21.3 14.7004 24.2997 11.7007 28 11.7007C31.7003 11.7007 34.7 14.7004 34.7 18.4007C34.7 22.101 31.7003 25.1007 28 25.1007C24.2997 25.1007 21.3 22.101 21.3 18.4007ZM28 9.70068C23.1951 9.70068 19.3 13.5958 19.3 18.4007C19.3 23.2056 23.1951 27.1007 28 27.1007C32.8049 27.1007 36.7 23.2056 36.7 18.4007C36.7 13.5958 32.8049 9.70068 28 9.70068ZM28 27.9007C26.0302 27.9007 24.0796 28.2887 22.2597 29.0425C20.4399 29.7963 18.7863 30.9012 17.3934 32.2941C16.0005 33.687 14.8956 35.3405 14.1418 37.1604C13.388 38.9803 13 40.9309 13 42.9007C13 43.453 13.4477 43.9007 14 43.9007H42C42.5523 43.9007 43 43.453 43 42.9007C43 40.9309 42.612 38.9803 41.8582 37.1604C41.1044 35.3405 39.9995 33.687 38.6066 32.2941C37.2137 30.9012 35.5601 29.7963 33.7403 29.0425C31.9204 28.2887 29.9698 27.9007 28 27.9007ZM23.0251 30.8902C24.6023 30.2369 26.2928 29.9007 28 29.9007C29.7072 29.9007 31.3977 30.2369 32.9749 30.8902C34.5521 31.5436 35.9852 32.5011 37.1924 33.7083C38.3996 34.9155 39.3571 36.3486 40.0104 37.9258C40.5358 39.1943 40.8562 40.536 40.9615 41.9007H15.0385C15.1438 40.536 15.4642 39.1943 15.9896 37.9258C16.6429 36.3486 17.6004 34.9155 18.8076 33.7083C20.0148 32.5011 21.4479 31.5436 23.0251 30.8902Z" fill="#1F222C"/>
</svg>
