<svg width="56" height="57" viewBox="0 0 56 57" fill="none" xmlns="http://www.w3.org/2000/svg">
<path fill-rule="evenodd" clip-rule="evenodd" d="M39.0016 22.6001C38.859 21.853 38.6403 21.1206 38.3478 20.4144C37.7849 19.0556 36.9599 17.8209 35.9199 16.7809C34.8799 15.7409 33.6452 14.9159 32.2864 14.353C30.9275 13.7902 29.4711 13.5005 28.0003 13.5005C26.5295 13.5005 25.0731 13.7902 23.7143 14.353C22.3554 14.9159 21.1207 15.7409 20.0807 16.7809C19.0407 17.8209 18.2157 19.0556 17.6529 20.4144C17.3604 21.1205 17.1417 21.853 16.999 22.6001L39.0016 22.6001Z" fill="#EDB939"/>
<path d="M39.1998 22.6009V23.6009C39.7521 23.6009 40.1998 23.1532 40.1998 22.6009H39.1998ZM38.3473 18.3148L37.4234 18.6975V18.6975L38.3473 18.3148ZM16.7998 22.6009H15.7998C15.7998 23.1532 16.2475 23.6009 16.7998 23.6009L16.7998 22.6009ZM17.6524 18.3148L16.7285 17.9321H16.7285L17.6524 18.3148ZM20.0802 14.6813L20.7873 15.3884L20.0802 14.6813ZM23.7138 12.2534L23.3311 11.3295V11.3295L23.7138 12.2534ZM27.9998 11.4009V12.4009V11.4009ZM35.9194 14.6813L35.2123 15.3884V15.3884L35.9194 14.6813ZM35.9194 25.8813L35.2123 26.5884L35.9194 25.8813ZM38.3473 29.5148L37.4234 29.8975L38.3473 29.5148ZM39.1998 33.8009V34.8009C39.465 34.8009 39.7194 34.6955 39.9069 34.508C40.0944 34.3205 40.1998 34.0661 40.1998 33.8009H39.1998ZM28.0871 33.8009V32.8009C27.5364 32.8009 27.0893 33.2462 27.0871 33.797C27.085 34.3477 27.5286 34.7966 28.0793 34.8008L28.0871 33.8009ZM32.2859 34.6531L31.9032 35.577L32.2859 34.6531ZM35.9194 37.0809L35.2123 37.788V37.7881L35.9194 37.0809ZM38.3473 40.7145L37.4234 41.0972L38.3473 40.7145ZM39.1998 45.0005V46.0005C39.465 46.0005 39.7194 45.8952 39.9069 45.7076C40.0944 45.5201 40.1998 45.2658 40.1998 45.0005H39.1998ZM16.7998 45.0005L15.7998 45.0005C15.7998 45.5528 16.2475 46.0005 16.7998 46.0005L16.7998 45.0005ZM17.6524 40.7145L18.5762 41.0972L17.6524 40.7145ZM20.0802 37.0809L20.7873 37.788L20.0802 37.0809ZM23.7138 34.6531L23.3311 33.7292H23.3311L23.7138 34.6531ZM27.9125 33.8009L27.9203 34.8008C28.471 34.7966 28.9146 34.3477 28.9125 33.797C28.9103 33.2462 28.4632 32.8009 27.9125 32.8009V33.8009ZM16.7998 33.8009H15.7998C15.7998 34.3532 16.2475 34.8009 16.7998 34.8009L16.7998 33.8009ZM17.6524 29.5148L18.5762 29.8975L17.6524 29.5148ZM20.0802 25.8813L20.7873 26.5884L20.0802 25.8813ZM23.7138 23.4534L23.3311 22.5295H23.3311L23.7138 23.4534ZM40.1998 22.6009C40.1998 20.9988 39.8842 19.4123 39.2711 17.9321L37.4234 18.6975C37.936 19.935 38.1998 21.2614 38.1998 22.6009H40.1998ZM27.9998 23.6009H39.1998V21.6009H27.9998V23.6009ZM16.7998 23.6009L27.9998 23.6009V21.6009L16.7998 21.6009L16.7998 23.6009ZM16.7285 17.9321C16.1154 19.4123 15.7998 20.9987 15.7998 22.6009H17.7998C17.7998 21.2614 18.0636 19.935 18.5762 18.6975L16.7285 17.9321ZM19.3731 13.9742C18.2402 15.107 17.3416 16.452 16.7285 17.9321L18.5762 18.6975C19.0888 17.46 19.8402 16.3355 20.7873 15.3884L19.3731 13.9742ZM23.3311 11.3295C21.8509 11.9427 20.506 12.8413 19.3731 13.9742L20.7873 15.3884C21.7345 14.4412 22.8589 13.6899 24.0964 13.1773L23.3311 11.3295ZM27.9998 10.4009C26.3977 10.4009 24.8112 10.7164 23.3311 11.3295L24.0964 13.1773C25.334 12.6647 26.6603 12.4009 27.9998 12.4009V10.4009ZM32.6685 11.3295C31.1884 10.7164 29.6019 10.4009 27.9998 10.4009V12.4009C29.3393 12.4009 30.6657 12.6647 31.9032 13.1773L32.6685 11.3295ZM36.6265 13.9742C35.4936 12.8413 34.1487 11.9427 32.6685 11.3295L31.9032 13.1773C33.1407 13.6899 34.2651 14.4412 35.2123 15.3884L36.6265 13.9742ZM39.2711 17.9321C38.658 16.452 37.7594 15.1071 36.6265 13.9742L35.2123 15.3884C36.1595 16.3355 36.9108 17.46 37.4234 18.6975L39.2711 17.9321ZM27.9998 23.6009C29.3393 23.6009 30.6657 23.8647 31.9032 24.3773L32.6685 22.5295C31.1884 21.9164 29.6019 21.6009 27.9998 21.6009V23.6009ZM31.9032 24.3773C33.1407 24.8899 34.2651 25.6412 35.2123 26.5884L36.6265 25.1742C35.4936 24.0413 34.1487 23.1427 32.6685 22.5295L31.9032 24.3773ZM35.2123 26.5884C36.1595 27.5355 36.9108 28.66 37.4234 29.8975L39.2711 29.1321C38.658 27.652 37.7594 26.3071 36.6265 25.1742L35.2123 26.5884ZM37.4234 29.8975C37.936 31.135 38.1998 32.4614 38.1998 33.8009H40.1998C40.1998 32.1988 39.8842 30.6123 39.2711 29.1321L37.4234 29.8975ZM39.1998 32.8009L28.0871 32.8009V34.8009L39.1998 34.8009V32.8009ZM28.0793 34.8008C29.3918 34.8111 30.6902 35.0745 31.9032 35.577L32.6685 33.7292C31.2177 33.1282 29.6647 32.8132 28.0949 32.8009L28.0793 34.8008ZM31.9032 35.577C33.1407 36.0896 34.2651 36.8409 35.2123 37.788L36.6265 36.3738C35.4936 35.241 34.1487 34.3423 32.6685 33.7292L31.9032 35.577ZM35.2123 37.7881C36.1595 38.7352 36.9108 39.8596 37.4234 41.0972L39.2711 40.3318C38.658 38.8516 37.7594 37.5067 36.6265 36.3738L35.2123 37.7881ZM37.4234 41.0972C37.936 42.3347 38.1998 43.6611 38.1998 45.0005H40.1998C40.1998 43.3984 39.8842 41.812 39.2711 40.3318L37.4234 41.0972ZM39.1998 44.0005L16.7998 44.0005L16.7998 46.0005L39.1998 46.0005V44.0005ZM17.7998 45.0005C17.7998 43.6611 18.0636 42.3347 18.5762 41.0972L16.7285 40.3318C16.1154 41.812 15.7998 43.3984 15.7998 45.0005L17.7998 45.0005ZM18.5762 41.0972C19.0888 39.8596 19.8402 38.7352 20.7873 37.788L19.3731 36.3738C18.2402 37.5067 17.3416 38.8516 16.7285 40.3318L18.5762 41.0972ZM20.7873 37.788C21.7345 36.8409 22.8589 36.0896 24.0964 35.577L23.3311 33.7292C21.8509 34.3423 20.506 35.241 19.3731 36.3738L20.7873 37.788ZM24.0964 35.577C25.3095 35.0745 26.6078 34.8111 27.9203 34.8008L27.9047 32.8009C26.3349 32.8131 24.7819 33.1282 23.3311 33.7292L24.0964 35.577ZM27.9125 32.8009L16.7998 32.8009L16.7998 34.8009L27.9125 34.8009V32.8009ZM17.7998 33.8009C17.7998 32.4614 18.0636 31.135 18.5762 29.8975L16.7285 29.1321C16.1154 30.6123 15.7998 32.1988 15.7998 33.8009H17.7998ZM18.5762 29.8975C19.0888 28.66 19.8402 27.5355 20.7873 26.5884L19.3731 25.1742C18.2402 26.307 17.3416 27.652 16.7285 29.1321L18.5762 29.8975ZM20.7873 26.5884C21.7345 25.6412 22.8589 24.8899 24.0964 24.3773L23.3311 22.5295C21.8509 23.1427 20.506 24.0413 19.3731 25.1742L20.7873 26.5884ZM24.0964 24.3773C25.334 23.8647 26.6603 23.6009 27.9998 23.6009V21.6009C26.3977 21.6009 24.8112 21.9164 23.3311 22.5295L24.0964 24.3773Z" fill="#1F222C"/>
</svg>
