<svg width="56" height="57" viewBox="0 0 56 57" fill="none" xmlns="http://www.w3.org/2000/svg">
<path fill-rule="evenodd" clip-rule="evenodd" d="M19.8603 21.1225C19.2271 19.5938 18.9012 17.9554 18.9012 16.3007L40.582 16.3007C40.5033 17.7161 40.1861 19.1098 39.6424 20.4225C39.0092 21.9512 38.0811 23.3402 36.911 24.5102C35.741 25.6803 34.352 26.6084 32.8233 27.2416C31.2946 27.8748 29.6561 28.2007 28.0015 28.2007C27.7689 28.2007 27.5366 28.1942 27.3048 28.1814C27.0945 28.1071 26.8859 28.0272 26.6794 27.9416C25.1507 27.3084 23.7616 26.3803 22.5916 25.2103C21.4216 24.0402 20.4935 22.6512 19.8603 21.1225Z" fill="#EDB939"/>
<path fill-rule="evenodd" clip-rule="evenodd" d="M23.8459 28.5505C23.4913 28.4368 23.141 28.3083 22.7959 28.1653C21.1459 27.4819 19.6466 26.4801 18.3837 25.2172C17.1209 23.9544 16.1191 22.4551 15.4356 20.8051C14.7522 19.1551 14.4004 17.3866 14.4004 15.6006C14.4004 15.0483 14.8481 14.6006 15.4004 14.6006L40.6004 14.6006C41.1527 14.6006 41.6004 15.0483 41.6004 15.6006C41.6004 17.3866 41.2486 19.1551 40.5652 20.8051C39.8817 22.4551 38.8799 23.9544 37.617 25.2172C36.3542 26.4801 34.8549 27.4819 33.2049 28.1653C32.8598 28.3083 32.5094 28.4368 32.1549 28.5505C32.5094 28.6643 32.8598 28.7927 33.2049 28.9357C34.8549 29.6191 36.3542 30.6209 37.617 31.8838C38.8799 33.1466 39.8817 34.6459 40.5652 36.2959C41.2486 37.9459 41.6004 39.7144 41.6004 41.5004C41.6004 42.0527 41.1527 42.5004 40.6004 42.5004C40.0481 42.5004 39.6004 42.0527 39.6004 41.5004C39.6004 39.9771 39.3003 38.4687 38.7174 37.0613C38.1344 35.6539 37.28 34.3751 36.2028 33.298C35.1257 32.2208 33.8469 31.3664 32.4395 30.7834C31.0321 30.2005 29.5237 29.9004 28.0004 29.9004C26.4771 29.9004 24.9686 30.2005 23.5613 30.7834C22.1539 31.3664 20.8751 32.2208 19.798 33.298C18.7208 34.3751 17.8663 35.6539 17.2834 37.0613C16.7004 38.4687 16.4004 39.9771 16.4004 41.5004C16.4004 42.0527 15.9527 42.5004 15.4004 42.5004C14.8481 42.5004 14.4004 42.0527 14.4004 41.5004C14.4004 39.7144 14.7522 37.9459 15.4356 36.2959C16.1191 34.6459 17.1209 33.1466 18.3837 31.8838C19.6466 30.6209 21.1459 29.6191 22.7959 28.9356C23.141 28.7927 23.4913 28.6643 23.8459 28.5505ZM23.5613 26.3176C24.9686 26.9005 26.4771 27.2006 28.0004 27.2006C29.5237 27.2006 31.0321 26.9005 32.4395 26.3176C33.8469 25.7346 35.1257 24.8802 36.2028 23.803C37.28 22.7259 38.1344 21.4471 38.7174 20.0397C39.1724 18.9412 39.455 17.7812 39.5572 16.6006L16.4436 16.6006C16.5457 17.7812 16.8284 18.9412 17.2834 20.0397C17.8663 21.4471 18.7208 22.7259 19.798 23.803C20.8751 24.8802 22.1539 25.7346 23.5613 26.3176Z" fill="#1F222C"/>
</svg>
